<svg xmlns="http://www.w3.org/2000/svg" xmlns:xlink="http://www.w3.org/1999/xlink">

  <symbol id="boviaSvg" viewBox="0 0 89 38" width="89" height="38">
    <path fill-rule="evenodd" clip-rule="evenodd" d="M44.5047 0.191406C55.749 0.191406 66.9934 1.87749 84.7969 4.17057C86.8048 4.44034 88.4781 5.85666 88.4781 7.87996V8.35207V14.0173V23.5268V29.1921V29.6642C88.4781 31.7549 86.8048 33.1038 84.7969 33.3736C66.9934 35.6667 55.749 37.3528 44.5047 37.3528C31.2524 37.3528 17.2639 35.0597 4.14554 33.3736C2.13762 33.1038 0.464355 31.7549 0.464355 29.6642V29.1921V23.5268V14.0173V8.35207V7.87996C0.464355 5.85666 2.13762 4.44034 4.14554 4.17057C17.2639 2.48448 31.2524 0.191406 44.5047 0.191406ZM23.7562 23.5268V20.1547C23.7562 19.0081 23.1538 18.4686 22.6184 18.1314C23.0869 17.8616 23.5554 16.9174 23.5554 16.1081V14.0173C23.5554 11.9266 22.6853 10.8475 20.4097 10.8475H8.4291V26.6967H20.7443C22.8861 26.6967 23.7562 25.4827 23.7562 23.5268ZM80.4464 26.6967L76.0959 10.8475C76.0959 10.8475 75.6274 10.8475 69.1351 10.8475L64.5839 26.6967H67.328L68.4658 22.6501H73.2848L74.3557 26.6967H80.4464ZM72.6825 20.0198H69.2021L71.0761 13.5452L72.6825 20.0198ZM63.446 26.6967V10.8475H57.5562V26.6967H63.446ZM56.4183 10.8475H53.7411L50.7292 21.6384L47.9181 10.8475H41.9613L46.1779 26.6967H52.0009L56.4183 10.8475ZM41.3589 22.5152V15.029C41.3589 13.5452 41.0912 12.4661 40.4888 11.8591C39.8195 11.1847 38.9494 10.8475 37.8116 10.8475H28.9768C27.772 10.8475 26.9019 11.1847 26.2996 11.8591C25.6972 12.5336 25.3625 13.6127 25.3625 15.029V22.5152C25.3625 24.0664 25.6972 25.078 26.2996 25.7525C26.9019 26.4269 27.772 26.6967 28.9768 26.6967H37.8116C39.0164 26.6967 39.8865 26.3595 40.4888 25.7525C41.0912 25.078 41.3589 23.9989 41.3589 22.5152ZM35.536 23.4594C35.536 24.0664 35.1344 24.3362 34.4651 24.3362H32.3233C31.5871 24.3362 31.2524 24.0664 31.2524 23.4594V14.1522C31.2524 13.5452 31.5871 13.208 32.3233 13.208H34.4651C35.1344 13.208 35.536 13.5452 35.536 14.1522V23.4594ZM17.7994 14.0848C17.7994 15.2313 17.7994 16.4453 17.7994 16.4453C17.7994 17.0523 17.4647 17.3895 16.9962 17.3895H14.1182V13.208H16.9962C17.5317 13.208 17.7994 13.4778 17.7994 14.0848ZM18.0671 23.2571C18.0671 24.0664 17.6655 24.3362 16.8624 24.3362H14.1182V19.6826H16.9293C17.7324 19.6826 18.0671 20.0872 18.0671 20.7617C18.0671 20.7617 18.0671 22.2454 18.0671 23.2571Z" fill="white"/>
  </symbol>

  <symbol id="stenersSvg" viewBox="0 0 120 31" width="120" height="31">
    <path fill-rule="evenodd" clip-rule="evenodd" d="M67.2825 0.648193H115.511C117.646 0.648193 119.465 2.47923 119.465 4.62871V26.84C119.465 29.0691 117.646 30.9001 115.511 30.9001H56.4508V16.1722L63.4084 23.974H67.2825V0.648193ZM107.447 7.09663C105.312 7.09663 103.573 7.6539 102.308 8.68884C101.201 9.56455 100.489 10.9179 100.489 12.5897C100.489 13.8635 100.885 14.8188 101.675 15.5353C102.466 16.3314 103.652 16.8887 105.312 17.2868L108.238 18.1625C108.712 18.2421 109.028 18.4013 109.186 18.5605C109.423 18.7994 109.503 19.0382 109.503 19.277C109.503 19.6751 109.344 20.0731 108.949 20.3119C108.633 20.4712 108.238 20.5508 107.684 20.5508C106.973 20.5508 106.34 20.3916 105.866 20.1527C105.47 19.9139 105.154 19.5158 104.917 19.1178H99.8568C100.331 21.2673 101.438 22.541 102.782 23.3371C104.363 24.1332 106.182 24.3721 107.684 24.3721C110.056 24.3721 111.954 23.8148 113.298 22.8595C114.484 21.9838 115.195 20.6304 115.195 18.879C115.195 17.446 114.721 16.411 113.93 15.6945C113.06 14.9781 111.874 14.5004 110.609 14.182L107.368 13.3062C107.052 13.2266 106.735 13.0674 106.577 12.9082C106.261 12.749 106.182 12.4305 106.182 12.1121C106.182 11.6344 106.34 11.316 106.735 11.1568C106.973 10.9975 107.368 10.9179 107.763 10.9179C108.396 10.9179 108.87 11.0771 109.186 11.3956C109.423 11.5548 109.582 11.7936 109.74 12.1121H114.879C114.563 10.5199 113.772 9.40533 112.823 8.68884C111.163 7.41507 108.949 7.09663 107.447 7.09663ZM74.5564 11.316H81.9093V7.49468H69.0219V23.974H81.9093V20.1527H74.0029V17.5256H80.5652V13.9431H74.0029V11.316H74.5564ZM91.2388 20.1527L93.6107 23.974H99.4615L95.9036 18.7197L96.378 18.4013C97.0895 17.844 97.722 17.1275 98.1174 16.3314C98.5127 15.4557 98.7499 14.58 98.7499 13.5451C98.7499 11.6344 98.0383 10.1218 96.8523 9.08689C95.5873 8.05196 93.6898 7.49468 91.2388 7.49468H83.6487V23.974H88.5507V19.8343H91.0807L91.2388 20.1527ZM88.5507 15.1373V11.4752H91.2388C91.9504 11.4752 92.5038 11.6344 92.9782 11.9529C93.4526 12.3509 93.6898 12.8286 93.6898 13.4655C93.6898 14.1023 93.4526 14.6596 92.9782 15.0577C92.5038 15.4557 91.9504 15.6945 91.2388 15.6945H88.5507V15.1373Z" fill="white"/>
    <path fill-rule="evenodd" clip-rule="evenodd" d="M4.18952 0.647461H62.3805V15.455L55.5019 7.49395H51.5487V30.8994H4.18952C2.0548 30.8994 0.236328 29.0684 0.236328 26.8393V4.62798C0.236328 2.4785 2.0548 0.647461 4.18952 0.647461ZM42.3773 11.3152H49.7303V7.49395H36.9219V23.9733H49.7303V20.152H41.9029V17.5249H48.4652V13.9424H41.9029V11.3152H42.3773ZM12.0959 7.0959C9.96117 7.0959 8.14271 7.65317 6.95675 8.68811C5.77079 9.56382 5.13828 10.9172 5.13828 12.589C5.13828 13.8628 5.5336 14.8181 6.24518 15.5346C7.03581 16.3307 8.30083 16.888 9.88211 17.286L12.8865 18.1617C13.3609 18.2413 13.5981 18.4006 13.8353 18.5598C14.0725 18.7986 14.1516 19.0374 14.1516 19.2763C14.1516 19.6743 13.9934 20.0724 13.519 20.3112C13.2819 20.4704 12.8865 20.55 12.3331 20.55C11.5424 20.55 10.989 20.3908 10.4356 20.152C10.0402 19.9132 9.72398 19.5151 9.56586 19.1171H4.50577C4.90109 21.2665 6.08705 22.5403 7.43113 23.3364C9.01241 24.1325 10.8309 24.3713 12.3331 24.3713C14.705 24.3713 16.6025 23.8141 17.9466 22.8587C19.1326 21.983 19.8441 20.6297 19.8441 18.8782C19.8441 17.4452 19.2907 16.4103 18.5001 15.6938C17.7094 14.9773 16.5235 14.4997 15.2584 14.1812L12.0168 13.3055C11.6215 13.2259 11.3843 13.0667 11.1471 12.9075C10.9099 12.7482 10.7518 12.4298 10.7518 12.1114C10.7518 11.6337 10.989 11.3152 11.3053 11.156C11.6215 10.9968 12.0168 10.9172 12.4122 10.9172C12.9656 10.9172 13.44 11.0764 13.8353 11.3949C14.0725 11.5541 14.2306 11.7929 14.3097 12.1114H19.4488C19.2116 10.5191 18.421 9.4046 17.3932 8.68811C15.8119 7.41434 13.519 7.0959 12.0959 7.0959ZM35.3406 11.6337V7.49395H20.7929V11.6337H25.6158V23.9733H30.5178V11.6337H35.3406Z" fill="white"/>
  </symbol>

  <symbol id="camidaSvg" viewBox="0 0 121 21" width="121" height="21">
    <path d="M69.8854 6.63637V1.54296C69.8854 1.46337 69.9651 1.38379 70.1244 1.38379H78.0117C78.0914 1.38379 78.1711 1.46337 78.1711 1.54296V2.97548C76.498 6.07928 72.5145 7.11388 69.8854 6.63637Z" fill="white"/>
    <path d="M78.0113 20.1652H70.124C69.9647 20.1652 69.885 20.0856 69.885 20.0061V9.89882C73.1515 9.9784 76.5773 8.9438 78.1707 5.60125V20.0061C78.1707 20.0856 78.091 20.1652 78.0113 20.1652ZM47.8165 20.1652H42.0006C41.9209 20.1652 41.8412 20.0856 41.8412 20.0061V1.54243C41.8412 1.46285 41.9209 1.38326 42.0006 1.38326H52.039C52.1186 1.38326 52.1983 1.46285 52.1983 1.54243L54.5087 11.013L57.0582 1.54243C57.0582 1.46285 57.1378 1.38326 57.2972 1.38326H67.0966C67.1762 1.38326 67.2559 1.46285 67.2559 1.54243V20.0061C67.2559 20.0856 67.1762 20.1652 67.0966 20.1652H61.201C61.1213 20.1652 61.0417 20.0856 61.0417 20.0061V7.19294L57.6955 20.0061C57.6955 20.1652 57.6159 20.1652 57.5362 20.1652H51.561C51.4813 20.1652 51.4016 20.1652 51.4016 20.0856L47.9758 7.19294V20.0061C47.9758 20.0856 47.8961 20.1652 47.8165 20.1652ZM89.8821 5.68083H88.0497V15.8677H89.8821C90.2008 15.8677 90.4398 15.8677 90.5992 15.7881C90.8382 15.7085 90.9975 15.6289 91.0772 15.5493C91.3162 15.3106 91.3959 14.8331 91.3959 14.1964V7.43169C91.3959 7.03377 91.3959 6.79502 91.3162 6.55626C91.2365 6.31751 91.1569 6.15834 91.0772 6.07875C90.8382 5.84 90.4398 5.68083 89.8821 5.68083ZM91.7942 20.1652H80.9591C80.8794 20.1652 80.7998 20.0856 80.7998 20.0061V1.54243C80.7998 1.46285 80.8794 1.38326 80.9591 1.38326H91.7942C92.9893 1.38326 94.025 1.54243 94.9013 1.78119C95.7777 2.01994 96.4947 2.41786 97.0524 2.97496C97.6101 3.45246 98.0881 4.08914 98.3271 4.96457C98.6458 5.76042 98.7255 6.63585 98.7255 7.75003V13.878C98.7255 14.9126 98.6458 15.8677 98.3271 16.6635C98.0881 17.4594 97.6101 18.096 97.0524 18.6531C95.937 19.6877 94.1843 20.1652 91.7942 20.1652ZM106.214 20.1652H99.0442C99.0442 20.1652 99.0442 20.1652 98.9645 20.1652C98.8848 20.1652 98.8052 20.0856 98.8848 19.9265L104.621 1.54243C104.701 1.46285 104.701 1.38326 104.86 1.38326H114.42C114.42 1.38326 114.5 1.46285 114.58 1.54243L120.236 19.9265V20.0061C120.236 20.0856 120.157 20.1652 120.077 20.1652H112.907C112.827 20.1652 112.747 20.1652 112.747 20.0856L112.19 17.3002H107.011L106.374 20.0061C106.374 20.1652 106.294 20.1652 106.214 20.1652ZM111.313 13.4005L109.64 5.68083L107.967 13.4005H111.313ZM26.704 20.1652H19.5337C19.454 20.1652 19.454 20.1652 19.454 20.1652C19.3743 20.1652 19.2947 20.0856 19.3743 19.9265L25.1106 1.54243C25.1106 1.46285 25.1902 1.38326 25.2699 1.38326H34.8303C34.91 1.38326 34.9896 1.46285 34.9896 1.54243L40.6462 19.9265C40.7259 19.9265 40.7259 20.0061 40.7259 20.0061C40.7259 20.0856 40.6462 20.1652 40.4868 20.1652H33.3962C33.3166 20.1652 33.2369 20.1652 33.2369 20.0856L32.5995 17.3002H27.5007L26.8633 20.0061C26.8633 20.1652 26.7836 20.1652 26.704 20.1652ZM31.8028 13.4005L30.1298 5.68083L28.377 13.4005H31.8028ZM19.215 6.47668C19.215 6.95419 19.2947 7.51128 19.2947 8.06837C19.2947 8.14795 19.215 8.22754 19.0557 8.22754H12.2041C12.1244 8.22754 12.0447 8.14795 12.0447 8.06837V6.39709C12.0447 5.99917 11.965 5.44208 11.487 5.28291C10.77 4.96457 8.69858 4.88499 7.98155 5.28291C7.66287 5.52166 7.5832 5.99917 7.5832 6.39709V15.231C7.5832 16.0268 7.74254 16.2656 8.53924 16.4248C9.41561 16.5839 10.2123 16.5839 11.0887 16.4248C11.8057 16.2656 12.0447 15.9472 12.0447 15.231V13.1618C12.0447 13.0822 12.1244 13.0026 12.2041 13.0026H19.0557C19.215 13.0026 19.2947 13.0822 19.2947 13.1618C19.2947 13.7189 19.215 14.276 19.215 14.8331C19.1353 15.3106 19.0557 15.7881 18.8963 16.186C18.8166 16.6635 18.6573 17.0614 18.4183 17.4594C18.259 17.8573 17.9403 18.2552 17.6216 18.5735C16.9046 19.3694 15.9485 19.8469 14.9925 20.1652C13.8771 20.5632 11.487 20.7223 9.81396 20.7223C8.85792 20.7223 7.74254 20.7223 6.70683 20.5632C5.83047 20.4836 4.9541 20.404 4.47608 20.2448C3.91839 20.0061 3.3607 19.7673 2.96235 19.5286C2.00631 18.8919 1.36896 18.096 0.970606 17.0614C0.731597 16.5839 0.572257 16.0268 0.492587 15.3902C0.333248 14.8331 0.253578 14.1168 0.173908 13.321C0.0942383 12.6047 0.0942383 11.7293 0.0942383 10.7742C0.0942383 9.81923 0.0942383 8.9438 0.173908 8.14795C0.253578 7.35211 0.333248 6.63585 0.492587 5.99917C0.651927 5.36249 0.811267 4.8054 1.05028 4.24831C1.5283 3.29329 2.16565 2.49745 3.04202 1.94036C3.52004 1.7016 3.99806 1.46285 4.55575 1.30368C5.11344 1.14451 5.91014 1.06493 6.70683 0.985341C7.74254 0.905756 8.85792 0.826172 9.73429 0.826172C10.6903 0.826172 11.8057 0.905756 12.7617 0.985341C13.6381 1.06493 14.4348 1.14451 14.9128 1.30368C15.8689 1.62202 16.8249 2.01994 17.5419 2.7362C17.8606 3.05454 18.1793 3.45246 18.4183 3.7708C18.5776 4.16872 18.8166 4.56665 18.8963 5.04416C19.0557 5.44208 19.1353 5.91959 19.215 6.47668Z" fill="white"/>
  </symbol>

  <symbol id="gilberSvg" viewBox="0 0 109 53" width="109" height="53">
    <path d="M25.3842 33.1207L19.6275 35.2117C18.9707 34.1981 18.1197 33.6921 17.0715 33.6921C16.1538 33.6921 15.3816 34.0857 14.7552 34.8728C14.1272 35.66 13.8132 36.5976 13.8132 37.6826C13.8132 38.7691 14.1363 39.7052 14.7825 40.4923C15.4287 41.281 16.1917 41.6746 17.0715 41.6746C17.6328 41.6746 18.1242 41.5378 18.5459 41.2673C18.9661 40.9953 19.2619 40.6245 19.4303 40.1535H16.5664V35.973H26.6751V37.7099C26.6751 39.3937 26.2352 40.9406 25.3554 42.3523C24.4756 43.764 23.2863 44.8825 21.7891 45.7061C20.2919 46.5297 18.6627 46.9416 16.9031 46.9416C15.1435 46.9416 13.5143 46.5297 12.0156 45.7061C10.5184 44.8825 9.32914 43.764 8.44933 42.3523C7.56952 40.9406 7.12961 39.3937 7.12961 37.7099C7.12961 36.0262 7.56952 34.4792 8.44933 33.0675C9.32914 31.6558 10.5184 30.5374 12.0156 29.7138C13.5143 28.8901 15.1435 28.4783 16.9031 28.4783C18.7007 28.4783 20.348 28.8947 21.8452 29.7274C23.3424 30.5602 24.5226 31.6908 25.3842 33.1207ZM14.4973 24.2538C11.2966 24.5015 8.40837 25.9147 6.2589 28.0695C3.88492 30.4462 2.41199 33.727 2.41199 37.3331C2.41199 40.9391 3.88492 44.381 6.2589 46.7577C8.63288 49.1359 11.9064 50.6129 15.506 50.6129H93.1283C96.7295 50.6129 100.003 49.1359 102.375 46.7577C104.749 44.381 106.222 40.9391 106.222 37.3331C106.222 33.727 104.749 30.4477 102.375 28.0695C100.003 25.6914 96.7279 24.2158 93.1283 24.2158H51.052L33.6317 19.1844C33.5437 19.2984 33.4482 19.4063 33.3465 19.5096L33.348 19.5111C32.7367 20.1235 31.8903 20.5034 30.9559 20.5034C30.0214 20.5034 29.175 20.1235 28.5637 19.5111L28.5652 19.5096C27.9508 18.8941 27.5716 18.0462 27.5716 17.1132C27.5716 16.1816 27.9508 15.3352 28.5637 14.7198L28.5667 14.7167C29.1811 14.1028 30.026 13.7229 30.9559 13.7229C31.8857 13.7229 32.7307 14.1028 33.345 14.7167L33.348 14.7198C33.9609 15.3352 34.3401 16.1816 34.3401 17.1132C34.3401 17.2241 34.334 17.335 34.3234 17.4429L51.2841 22.3406H93.1283C97.2452 22.3406 100.987 24.0274 103.698 26.7444C106.41 29.4615 108.094 33.2089 108.094 37.3331C108.094 41.4573 106.41 45.3672 103.698 48.0843C100.987 50.8014 97.2452 52.4866 93.1283 52.4866H15.506C11.3891 52.4866 7.64688 50.8014 4.93615 48.0843C2.22389 45.3672 0.540115 41.4573 0.540115 37.3331C0.540115 33.2089 2.22389 29.46 4.93615 26.7444C7.37535 24.2994 10.6504 22.6886 14.2819 22.3908C14.5671 21.7586 15.2027 21.3194 15.9399 21.3194C16.9441 21.3194 17.7602 22.1355 17.7602 23.1415C17.7602 24.149 16.9441 24.965 15.9399 24.965C15.3528 24.965 14.831 24.6869 14.4973 24.2538ZM31.5899 12.0863L35.9329 0.491699L33.4618 12.7154C32.896 12.3902 32.2634 12.1714 31.5899 12.0863ZM27.6019 13.3263L24.019 4.47763L29.5497 12.2474C28.82 12.4586 28.1571 12.8324 27.6019 13.3263ZM25.9015 17.2894L0.521912 8.91489L26.349 15.0267C26.0592 15.6635 25.8984 16.3701 25.8984 17.1132C25.8984 17.1724 25.9 17.2317 25.9015 17.2894ZM27.0043 20.2709L19.937 23.0123L26.0168 18.2042C26.1851 18.9701 26.528 19.6722 27.0012 20.2664L27.0043 20.2709ZM35.0667 14.1682L46.0067 9.99837L35.9177 16.1285C35.7751 15.4097 35.4793 14.7441 35.0667 14.1682ZM32.224 15.8397C31.9009 15.5176 31.4534 15.317 30.9559 15.317C30.4583 15.317 30.0108 15.5176 29.6877 15.8397L29.6847 15.8428C29.3631 16.1665 29.1629 16.6163 29.1629 17.1132C29.1629 17.6116 29.3631 18.0614 29.6847 18.3836H29.6877C30.0123 18.7088 30.4613 18.9109 30.9559 18.9109C31.4504 18.9109 31.8994 18.7088 32.224 18.3836H32.227C32.5501 18.0614 32.7489 17.6116 32.7489 17.1132C32.7489 16.6163 32.5501 16.1665 32.227 15.8428L32.224 15.8397ZM28.3604 46.3991V28.805H34.9878V46.3991H28.3604ZM36.9538 46.3991V28.805H43.4977V40.7233H49.8734V46.3991H36.9538ZM51.8666 46.3991V28.805H60.5722C62.4441 28.805 63.914 29.2032 64.9819 29.9994C66.0483 30.7957 66.5822 31.8549 66.5822 33.1754C66.5822 34.3698 66.3486 35.2573 65.8799 35.8363C65.4127 36.4152 64.6724 36.8954 63.6621 37.2753C66.115 37.8725 67.3407 39.2128 67.3407 41.2932C67.3407 44.6971 65.0744 46.3991 60.5434 46.3991H51.8666ZM59.392 35.4016C60.2172 35.4016 60.6283 34.9777 60.6283 34.1267C60.6283 33.7453 60.5206 33.4657 60.3052 33.2848C60.0898 33.104 59.8046 33.0128 59.4497 33.0128H57.96V35.4016H59.392ZM59.5892 42.0271C60.5813 42.0271 61.0773 41.5652 61.0773 40.6428C61.0773 39.7371 60.5434 39.2842 59.477 39.2842H57.96V42.0271H59.5892ZM69.026 46.3991V28.805H81.2129V33.61H75.4562V35.2938H80.6516V39.8009H75.4562V41.6472H81.3267V46.3991H69.026ZM91.5477 28.805C93.195 28.805 94.5861 29.0132 95.7192 29.4281C96.8508 29.8444 97.7079 30.5009 98.2889 31.3975C98.8683 32.2941 99.1596 33.4383 99.1596 34.8318C99.1596 37.058 97.9885 38.5244 95.6479 39.2311L100.479 46.3991H93.1768L90.0034 40.6154V46.3991H83.5732V28.805H91.5477ZM90.0034 36.7875H91.1275C92.344 36.7875 92.9523 36.163 92.9523 34.9139C92.9523 34.4792 92.8022 34.1039 92.5033 33.7863C92.2045 33.4702 91.8192 33.3122 91.352 33.3122H90.0034V36.7875Z" fill="white"/>
  </symbol>

</svg>